<?xml version="1.0" standalone="no"?>
<!DOCTYPE svg PUBLIC "-//W3C//DTD SVG 20010904//EN"
 "http://www.w3.org/TR/2001/REC-SVG-20010904/DTD/svg10.dtd">
<svg version="1.0" xmlns="http://www.w3.org/2000/svg"
 width="300.000000pt" height="300.000000pt" viewBox="0 0 300.000000 300.000000"
 preserveAspectRatio="xMidYMid meet">
<metadata>
Created by potrace 1.10, written by Peter Selinger 2001-2011
</metadata>
<g transform="translate(0.000000,300.000000) scale(0.100000,-0.100000)"
fill="#000000" stroke="none">
<path d="M0 1500 l0 -1500 1491 0 1491 0 -6 31 c-3 17 -6 692 -6 1500 l0 1469
-1485 0 -1485 0 0 -1500z m1522 420 l1223 0 14 -22 c10 -16 10 -23 2 -26 -8
-3 -8 -9 0 -24 8 -16 8 -23 -2 -29 -11 -7 -11 -9 1 -9 9 0 5 -6 -9 -13 -20
-10 -58 -62 -65 -87 0 -3 -3 -4 -7 -3 -3 1 -4 -12 -3 -28 1 -16 -3 -32 -9 -36
-6 -4 -7 -1 -2 7 5 8 4 11 -2 7 -12 -8 -3 -59 15 -94 9 -17 9 -22 -4 -27 -8
-3 -13 -10 -9 -16 4 -6 -7 -8 -27 -5 -27 5 -30 4 -13 -5 18 -9 17 -10 -5 -5
-14 3 -40 8 -57 12 -34 6 -44 28 -22 50 14 14 21 95 8 87 -5 -3 -6 2 -3 10 4
9 -6 26 -23 42 -15 15 -22 24 -14 19 9 -5 7 1 -4 19 -14 21 -21 24 -36 15 -10
-5 -19 -15 -20 -22 0 -9 -2 -9 -6 1 -2 6 -9 10 -14 6 -5 -3 -9 2 -9 10 0 9 -7
16 -15 16 -12 0 -15 -15 -16 -67 -1 -38 -1 -72 0 -76 1 -4 3 -17 4 -27 2 -11
9 -26 15 -32 7 -7 12 -15 12 -20 0 -12 -54 -36 -70 -30 -11 4 -10 -1 4 -23 17
-25 17 -29 3 -40 -21 -15 -23 -240 -2 -249 7 -2 12 -16 11 -30 -2 -14 1 -23 5
-20 16 9 10 -6 -10 -27 -19 -21 -26 -21 -653 -20 -421 0 -634 4 -636 11 -2 5
-8 10 -13 10 -6 0 -7 -4 -4 -10 3 -5 -1 -10 -9 -10 -9 0 -16 -5 -16 -11 0 -6
-7 -8 -17 -5 -10 4 -14 4 -10 -1 5 -4 -12 -17 -37 -29 -53 -26 -125 -22 -167
7 -14 10 -30 15 -34 11 -5 -4 -5 -2 -2 4 4 6 -3 20 -16 30 -12 10 -16 12 -9 4
15 -18 16 -38 1 -23 -7 7 -13 22 -15 35 -7 45 -29 113 -41 126 -7 7 -22 14
-33 15 -11 1 -20 5 -20 10 0 5 10 5 22 1 21 -6 21 -5 9 10 -12 14 -16 15 -28
3 -15 -15 -7 -51 10 -40 6 3 7 1 3 -6 -6 -9 -11 -9 -22 0 -12 10 -15 10 -12
-2 2 -8 -3 -13 -10 -11 -10 2 -11 -4 -7 -19 6 -17 4 -21 -8 -16 -9 3 -17 3
-19 -1 -2 -4 -18 -18 -36 -31 -26 -18 -42 -22 -74 -18 -22 3 -42 8 -45 11 -4
3 -7 36 -8 73 -1 53 3 77 21 110 21 39 21 44 6 53 -15 8 -15 9 -1 10 9 0 21
-10 27 -22 9 -19 11 -20 11 -5 1 10 11 22 24 27 16 6 5 8 -38 5 -33 -1 -71 2
-85 7 -31 11 -80 57 -80 74 0 7 -6 14 -12 17 -10 3 -13 40 -14 140 -1 111 -4
140 -17 155 -18 20 -26 87 -12 101 11 10 47 19 56 14 4 -1 558 -3 1231 -3z"/>
<path d="M1487 1892 c-686 -1 -1247 -5 -1247 -10 0 -4 363 -6 807 -4 1281 3
1709 7 1698 12 -5 3 -571 4 -1258 2z"/>
<path d="M776 1852 c-4 -7 -2 -12 3 -12 6 0 11 -5 11 -11 0 -5 -4 -8 -9 -4 -6
3 -9 -3 -8 -14 0 -11 4 -18 8 -15 4 2 10 -4 14 -15 3 -10 14 -26 25 -36 20
-18 20 -17 20 18 0 26 -6 39 -20 47 -12 7 -17 16 -13 27 4 10 2 14 -4 10 -6
-4 -13 -2 -15 5 -3 9 -6 9 -12 0z"/>
<path d="M1835 1846 c11 -8 16 -16 11 -16 -5 0 -4 -6 2 -12 12 -16 9 -78 -5
-86 -6 -4 -9 -15 -7 -25 2 -14 -1 -16 -11 -7 -10 8 -15 8 -21 -1 -5 -8 -3 -9
6 -4 10 6 12 4 7 -8 -8 -20 8 -31 31 -21 9 4 21 8 27 8 17 2 18 39 1 48 -9 5
-16 14 -16 21 0 8 4 6 11 -3 10 -13 10 -13 6 0 -3 8 -8 23 -12 32 -4 10 1 24
14 37 24 24 27 38 8 38 -7 0 -26 3 -42 7 -29 7 -29 7 -10 -8z"/>
<path d="M2609 1848 c7 -10 9 -18 5 -18 -5 0 -15 -9 -22 -21 -8 -12 -9 -18 -3
-14 6 3 11 -2 11 -13 0 -10 7 -19 16 -19 10 0 14 7 11 19 -3 10 -1 16 4 12 5
-3 9 2 9 10 0 10 -6 13 -17 9 -15 -6 -16 -4 -5 9 10 13 9 18 -5 29 -16 13 -17
12 -4 -3z"/>
<path d="M250 1841 c0 -4 10 -11 23 -16 21 -10 22 -16 27 -160 5 -164 12 -185
65 -207 39 -17 112 -16 152 1 61 25 73 61 73 210 0 116 2 133 19 150 23 23 57
18 71 -10 6 -10 9 -66 8 -124 -3 -88 -6 -109 -21 -119 -27 -21 -20 -26 33 -26
50 0 67 13 30 23 -18 5 -20 13 -20 104 l0 98 20 -25 c36 -46 127 -185 134
-204 5 -15 9 -16 21 -6 12 10 15 40 15 145 0 135 6 157 40 152 37 -6 40 -17
40 -138 0 -97 -3 -121 -15 -125 -31 -12 -13 -23 40 -23 55 0 73 12 35 22 -19
5 -20 14 -20 125 0 94 3 124 15 136 8 8 15 16 15 18 0 2 -30 2 -67 1 -38 -1
-87 -2 -110 -2 -24 -1 -43 -6 -43 -11 0 -6 3 -9 8 -9 27 5 31 -6 34 -96 2 -52
0 -95 -3 -95 -3 0 -39 48 -80 108 l-74 107 -112 3 c-77 3 -113 0 -113 -7 0 -6
9 -11 19 -11 43 0 51 -24 51 -151 0 -163 -16 -191 -105 -191 -43 0 -74 17 -85
48 -11 28 -14 253 -4 278 3 9 12 16 20 16 8 0 14 4 14 9 0 5 -34 8 -75 8 -41
0 -75 -3 -75 -6z"/>
<path d="M1111 1843 l-53 -4 20 -22 c11 -12 45 -89 75 -171 30 -82 56 -145 59
-140 3 5 26 72 52 150 26 78 53 150 61 160 8 10 15 21 15 24 0 4 -78 4 -100 0
-3 0 6 -9 20 -19 l24 -19 -17 -56 c-10 -31 -26 -75 -37 -97 l-18 -41 -33 102
c-32 95 -33 103 -16 114 17 13 23 28 10 24 -5 -1 -32 -3 -62 -5z"/>
<path d="M1190 1831 c-7 -15 -8 -21 -1 -17 7 5 9 1 5 -8 -3 -9 -10 -13 -15
-10 -5 3 -6 -2 -3 -10 3 -9 11 -13 16 -10 6 4 8 -1 4 -12 -7 -25 8 -49 24 -39
9 6 11 4 5 -5 -5 -9 -4 -11 4 -6 7 4 10 13 8 19 -2 7 0 24 4 40 6 21 3 33 -15
54 l-23 27 -13 -23z"/>
<path d="M1366 1841 c-3 -5 3 -11 14 -14 19 -5 20 -14 20 -131 0 -105 -2 -126
-15 -126 -8 0 -15 -4 -15 -9 0 -8 205 -21 218 -14 2 1 6 21 9 45 l5 43 -24
-27 c-28 -32 -58 -42 -99 -33 -30 7 -30 7 -27 68 3 60 4 62 32 65 22 3 34 -3
48 -20 l18 -23 0 49 c0 46 -1 48 -17 34 -10 -9 -33 -18 -50 -20 l-33 -5 0 49
0 48 45 0 c37 0 51 -5 70 -26 l25 -27 0 26 c0 55 -4 57 -115 57 -57 0 -106 -4
-109 -9z"/>
<path d="M1600 1841 c0 -5 9 -11 20 -14 19 -5 20 -14 20 -131 0 -103 -3 -128
-15 -132 -30 -12 -14 -20 40 -20 58 1 68 8 35 26 -17 9 -20 20 -19 71 2 79 17
76 89 -20 72 -96 109 -121 178 -121 34 0 67 7 93 21 54 27 44 34 -19 14 -69
-23 -120 -9 -164 47 -18 22 -50 60 -72 84 -32 37 -35 44 -19 44 27 0 63 41 63
71 0 53 -34 69 -144 69 -47 0 -86 -4 -86 -9z m168 -33 c7 -7 12 -24 12 -40 0
-32 -28 -51 -68 -46 -25 3 -27 7 -30 51 l-3 47 38 0 c22 0 44 -5 51 -12z"/>
<path d="M1713 1777 c-6 -10 -3 -13 22 -21 16 -4 21 -1 21 12 0 18 -33 25 -43
9z"/>
<path d="M1943 1838 c-26 -13 -52 -63 -46 -88 7 -28 32 -46 90 -64 28 -9 54
-24 57 -32 13 -35 6 -55 -26 -68 -35 -15 -68 -8 -100 21 -19 17 -25 53 -9 53
15 0 20 28 6 34 -9 3 -12 0 -8 -9 3 -8 -2 -18 -11 -21 -11 -4 -16 -19 -16 -45
0 -49 30 -71 99 -71 54 0 92 20 109 58 27 58 4 95 -77 122 -62 21 -82 42 -65
70 21 33 114 23 114 -13 0 -8 5 -15 10 -15 6 0 10 18 10 40 l0 40 -57 -1 c-32
0 -68 -5 -80 -11z"/>
<path d="M2094 1838 c-3 -4 -1 -8 5 -8 5 0 17 -7 25 -16 23 -22 23 -242 1
-250 -29 -12 -14 -20 35 -20 49 0 64 8 35 20 -12 4 -15 29 -15 131 0 102 3
127 15 131 8 4 15 9 15 13 0 9 -110 9 -116 -1z"/>
<path d="M2220 1803 c0 -49 6 -54 20 -18 7 19 17 25 40 25 l30 0 0 -119 c0
-96 -3 -120 -15 -125 -33 -12 -12 -26 40 -26 53 0 72 11 40 24 -12 4 -15 28
-15 126 l0 120 30 0 c23 0 33 -6 40 -25 14 -36 20 -31 20 18 l0 42 -115 0
-115 0 0 -42z"/>
<path d="M416 1824 c-3 -8 -10 -13 -15 -10 -5 4 -10 -50 -10 -124 -2 -113 1
-132 16 -149 17 -17 97 -36 87 -20 -2 4 4 10 13 13 16 5 18 21 18 139 0 126
-1 133 -20 135 -11 0 -25 8 -31 17 -15 20 -50 19 -58 -1z"/>
<path d="M2481 1827 c27 -21 104 -171 107 -208 2 -23 -2 -42 -12 -52 -24 -24
-20 -27 34 -27 48 0 66 12 35 24 -11 4 -15 20 -15 54 0 39 9 65 43 125 23 42
47 77 54 77 6 0 15 5 18 10 4 6 -15 10 -51 10 -55 0 -56 0 -35 -17 l22 -18
-35 -54 -34 -55 -28 55 c-16 30 -30 57 -32 62 -2 4 3 7 12 7 8 0 18 5 21 10 4
6 -17 10 -57 10 -51 -1 -60 -3 -47 -13z"/>
<path d="M1350 1816 c0 -2 7 -7 16 -10 8 -3 12 -2 9 4 -6 10 -25 14 -25 6z"/>
<path d="M622 1684 c0 -71 2 -123 5 -116 2 6 9 10 14 6 8 -5 11 3 8 22 0 4 5
11 13 15 11 7 11 9 -1 9 -11 0 -13 16 -9 76 4 61 2 79 -12 96 -16 20 -17 15
-18 -108z"/>
<path d="M931 1690 c-1 -84 2 -120 9 -110 12 18 12 187 0 215 -5 13 -9 -26 -9
-105z"/>
<path d="M1055 1787 c-16 -16 -6 -196 11 -223 10 -15 12 -24 5 -29 -6 -3 -16
-16 -22 -28 -12 -21 -11 -22 8 -4 14 12 32 17 57 14 28 -3 36 -1 37 12 0 11 3
8 9 -6 5 -13 15 -23 22 -23 10 0 10 2 1 8 -6 4 -15 19 -18 35 -4 15 -12 24
-18 20 -6 -3 -7 -1 -3 6 4 6 2 18 -4 26 -7 8 -10 22 -6 30 3 9 2 13 -4 10 -6
-3 -10 1 -10 10 0 8 -8 32 -17 53 -9 20 -21 51 -27 68 -8 22 -14 28 -21 21z"/>
<path d="M1335 1789 c4 -5 -3 -30 -14 -55 -12 -26 -21 -50 -21 -55 0 -4 -5
-20 -12 -36 -13 -31 -15 -39 -17 -66 0 -10 -5 -16 -10 -13 -5 4 -6 -5 -2 -21
8 -29 2 -28 106 -22 28 2 28 3 7 12 -26 12 -27 24 -6 77 22 55 9 182 -19 186
-9 1 -15 -2 -12 -7z m-18 -121 c-3 -8 -6 -5 -6 6 -1 11 2 17 5 13 3 -3 4 -12
1 -19z"/>
<path d="M1480 1780 c-13 -8 -12 -10 3 -10 10 0 15 -4 12 -10 -7 -11 8 -14 18
-4 7 7 -2 34 -12 34 -3 0 -13 -5 -21 -10z"/>
<path d="M1983 1775 c9 -8 20 -15 25 -15 6 0 12 -6 15 -12 2 -7 4 -2 4 12 0
22 -5 26 -29 28 -27 2 -28 1 -15 -13z"/>
<path d="M2245 1750 c-15 -16 -31 -28 -34 -25 -4 2 -4 -22 0 -53 3 -31 4 -61
2 -65 -3 -4 3 -19 12 -33 15 -23 17 -23 37 -10 19 14 21 25 22 116 1 55 -2
100 -5 100 -3 0 -18 -13 -34 -30z m25 -170 c-8 -6 -22 -10 -30 -10 -8 0 -4 6
10 13 27 15 44 12 20 -3z"/>
<path d="M1602 1761 c-1 -7 -9 -11 -17 -7 -15 5 -17 -14 -2 -25 4 -3 3 -17 -2
-31 -7 -19 -6 -31 4 -44 12 -17 14 -17 20 -3 3 9 4 41 2 70 -2 30 -4 48 -5 40z"/>
<path d="M2057 1752 c12 -11 20 -21 18 -24 -2 -2 4 -9 13 -14 15 -10 17 -7 18
22 1 34 -10 46 -19 22 -3 -10 -9 -10 -28 0 l-24 13 22 -19z"/>
<path d="M1489 1675 c-1 -5 -1 -13 0 -17 0 -5 -5 -8 -11 -8 -9 0 -8 -4 2 -10
8 -5 10 -10 4 -10 -6 0 -11 -6 -11 -13 0 -7 9 -13 19 -13 10 0 17 5 17 11 -3
29 1 36 15 23 11 -10 11 -16 2 -28 -10 -13 -9 -13 7 -1 9 7 17 20 17 28 0 8 5
11 10 8 6 -4 7 -11 4 -17 -4 -7 -2 -8 4 -4 15 9 3 38 -14 32 -7 -3 -20 2 -29
10 -11 12 -15 12 -15 2 0 -10 -3 -9 -10 2 -5 8 -10 11 -11 5z"/>
<path d="M1927 1649 c-3 -10 -1 -17 4 -13 5 3 9 1 9 -5 0 -15 63 -30 72 -17
11 16 10 28 -2 21 -5 -3 -10 0 -10 8 0 11 -7 13 -22 9 -12 -3 -19 -1 -15 4 3
6 -3 10 -13 11 -10 1 -20 -7 -23 -18z"/>
<path d="M740 1621 c0 -27 6 -44 18 -53 10 -7 19 -24 19 -38 2 -18 0 -21 -7
-10 -5 8 -12 11 -16 7 -10 -9 26 -42 48 -43 10 -1 17 1 16 5 -2 19 3 24 12 11
7 -11 9 -7 7 17 -1 18 -8 35 -16 38 -7 3 -10 12 -7 21 3 8 2 13 -3 10 -5 -3
-16 5 -25 19 -9 14 -14 25 -10 25 4 0 1 7 -6 15 -21 25 -30 17 -30 -24z"/>
<path d="M1710 1609 c0 -5 4 -8 9 -4 17 10 29 -27 19 -57 -7 -21 -17 -28 -36
-29 -23 -2 -24 -2 -5 -6 34 -7 48 -29 32 -50 -10 -12 -13 -41 -11 -112 2 -53
5 -97 7 -99 12 -13 42 -4 67 20 16 16 32 27 36 24 11 -7 4 136 -8 148 -15 15
-12 37 8 52 16 13 16 13 -1 14 -10 0 -22 11 -27 25 -5 14 -13 25 -18 25 -4 0
-16 14 -25 30 -17 29 -47 41 -47 19z"/>
<path d="M2190 1522 c-28 -10 -38 -17 -27 -20 9 -2 17 -7 17 -11 0 -4 9 -7 20
-7 13 0 20 7 20 18 0 10 5 18 11 18 5 0 7 -4 4 -10 -3 -6 1 -7 10 -3 12 4 13
8 4 13 -8 6 -6 9 7 13 18 4 18 5 -1 5 -11 0 -40 -8 -65 -16z"/>
<path d="M607 1523 c-4 -3 -7 -11 -7 -17 0 -6 5 -4 10 4 5 8 10 11 10 6 0 -10
-81 -86 -92 -86 -21 0 -5 -18 19 -23 30 -6 46 8 38 34 -3 9 3 22 12 30 15 11
16 11 6 -1 -17 -18 -16 -27 3 -34 8 -3 12 -2 9 4 -3 6 1 10 9 10 9 0 15 3 15
8 -3 19 2 25 11 12 8 -13 10 -12 10 3 0 9 5 17 10 17 6 0 10 7 10 16 0 10 -6
14 -15 10 -8 -3 -15 -1 -15 4 0 11 -33 14 -43 3z"/>
<path d="M910 1526 c0 -2 9 -6 20 -9 11 -3 20 -1 20 4 0 5 -9 9 -20 9 -11 0
-20 -2 -20 -4z"/>
<path d="M1577 1523 c-18 -5 -18 -5 0 -18 20 -15 33 -11 33 11 0 14 -2 15 -33
7z"/>
<path d="M2080 1519 c0 -5 -5 -7 -12 -3 -7 4 -8 3 -4 -5 6 -8 12 -9 20 -2 7 6
17 7 21 3 5 -4 5 -1 1 6 -9 15 -26 16 -26 1z"/>
<path d="M705 1471 c-39 -17 -105 -82 -105 -102 0 -6 -5 -7 -11 -3 -8 4 -9 0
-4 -15 4 -14 -3 -38 -21 -70 -32 -59 -78 -87 -118 -71 -20 7 -26 6 -26 -4 0
-16 21 -26 53 -26 51 0 125 75 143 144 7 31 34 34 41 6 9 -33 23 -23 23 15 0
33 -2 35 -21 25 -11 -7 -23 -9 -26 -7 -9 10 29 57 62 77 39 24 45 25 45 5 0
-8 5 -15 10 -15 6 0 10 14 10 30 0 35 -2 35 -55 11z"/>
<path d="M844 1476 c-42 -18 -89 -79 -104 -132 -16 -56 -8 -165 14 -199 22
-33 57 -55 106 -66 35 -8 49 -5 110 23 l70 33 0 57 c0 48 3 59 21 68 31 17 17
22 -58 22 -64 0 -100 -17 -51 -24 20 -3 23 -10 26 -48 4 -64 -14 -85 -72 -84
-52 1 -81 21 -102 71 -32 75 0 209 57 238 44 23 96 19 124 -10 14 -13 25 -31
25 -40 0 -8 5 -15 10 -15 6 0 10 26 10 58 l0 58 -77 1 c-47 2 -90 -3 -109 -11z"/>
<path d="M1064 1481 c-9 -9 -3 -21 10 -21 11 0 15 -24 18 -115 4 -134 14 -154
90 -162 98 -11 138 43 138 183 0 67 4 92 17 106 15 17 14 18 -28 18 -55 0 -82
-15 -45 -24 26 -6 26 -7 26 -106 0 -86 -3 -103 -20 -120 -31 -31 -68 -36 -98
-13 -26 19 -27 25 -30 122 -2 84 0 102 13 107 33 13 14 29 -36 29 -28 0 -52
-2 -55 -4z"/>
<path d="M1220 1485 c-1 -5 -2 -13 -1 -17 0 -5 -2 -7 -6 -6 -18 3 -41 -15 -36
-28 3 -8 0 -14 -7 -14 -10 0 -10 -3 0 -15 8 -10 11 -33 8 -68 -7 -63 2 -89 29
-93 16 -3 22 5 31 34 15 48 21 171 8 169 -5 -1 -13 9 -17 23 -4 14 -8 21 -9
15z"/>
<path d="M1360 1480 c0 -3 9 -13 20 -23 18 -15 20 -29 20 -131 0 -92 -3 -115
-15 -120 -37 -14 -7 -21 92 -21 l107 1 9 38 c9 35 0 66 -11 37 -11 -31 -43
-51 -81 -51 -51 0 -63 17 -59 82 3 49 5 53 30 56 17 2 34 -4 47 -17 12 -12 21
-20 22 -18 0 1 1 19 3 40 3 35 -6 48 -19 27 -3 -5 -24 -10 -46 -10 -39 0 -39
0 -39 40 l0 41 57 -3 c49 -3 59 -7 69 -26 15 -30 22 -17 17 28 l-5 35 -109 0
c-60 0 -109 -2 -109 -5z"/>
<path d="M1618 1463 c20 -14 22 -23 22 -117 0 -70 -5 -110 -15 -130 -8 -15
-15 -29 -15 -30 0 0 46 0 102 0 99 2 103 3 109 25 11 37 10 59 -1 59 -5 0 -10
-7 -10 -15 0 -24 -45 -47 -87 -43 l-38 3 -3 115 c-3 107 -1 116 19 133 21 17
20 17 -42 16 -61 0 -63 -1 -41 -16z"/>
<path d="M1840 1471 c0 -6 5 -11 10 -11 6 0 10 -50 10 -130 0 -80 -4 -130 -10
-130 -5 0 -10 -3 -10 -8 0 -8 97 -8 106 0 3 4 -4 9 -15 13 -18 5 -21 14 -21
64 l0 57 34 -4 c83 -10 146 73 100 133 -13 17 -29 21 -109 23 -64 3 -95 0 -95
-7z m158 -33 c6 -6 12 -23 12 -39 0 -36 -38 -64 -75 -55 -22 6 -25 11 -25 55
0 39 4 51 18 54 20 5 52 -2 70 -15z"/>
<path d="M1956 1404 c-9 -8 -16 -20 -16 -25 0 -15 43 -6 46 9 1 7 0 8 -3 2 -2
-5 -11 -10 -20 -10 -12 0 -12 2 1 16 16 15 20 24 12 24 -3 0 -12 -7 -20 -16z"/>
<path d="M2073 1469 c15 -9 17 -26 17 -135 0 -102 -3 -126 -15 -130 -31 -12
-14 -23 35 -22 54 0 57 2 35 24 -10 10 -15 35 -15 75 l0 59 70 0 70 0 0 -59
c0 -40 -5 -65 -15 -75 -23 -23 -19 -26 35 -26 48 0 66 12 35 24 -12 4 -15 29
-15 131 0 121 1 126 23 135 17 7 8 9 -38 9 -52 0 -58 -1 -42 -13 12 -9 17 -27
17 -60 l0 -46 -70 0 -69 0 3 44 c1 25 8 52 15 60 12 14 7 16 -40 16 -42 -1
-50 -3 -36 -11z"/>
<path d="M2179 1459 c-24 -29 -13 -59 21 -59 35 0 44 28 19 58 -21 27 -20 27
-40 1z"/>
<path d="M706 1408 c-9 -5 -16 -14 -16 -21 0 -8 4 -6 11 3 9 12 10 11 6 -7 -3
-13 -1 -23 4 -23 5 0 9 12 9 28 0 18 3 23 9 14 7 -11 9 -11 14 0 6 16 -13 19
-37 6z"/>
<path d="M855 1393 c-8 -12 -15 -27 -15 -33 0 -6 -5 -8 -12 -4 -6 4 -9 3 -6
-2 3 -5 2 -35 -1 -66 -4 -31 -3 -54 1 -52 4 3 8 -2 8 -11 0 -10 5 -13 12 -9 7
4 8 3 4 -5 -4 -6 -1 -23 8 -36 13 -19 23 -24 46 -21 17 2 34 6 37 10 16 15 7
62 -15 85 l-24 24 25 23 c21 19 34 22 81 20 l56 -4 0 36 0 35 -19 -22 -20 -23
-23 27 c-13 15 -23 32 -23 38 0 7 -20 12 -53 12 -44 0 -55 -3 -67 -22z"/>
<path d="M1354 1407 c-3 -8 -6 -47 -8 -88 -1 -41 -8 -85 -15 -98 -10 -18 -10
-25 0 -35 9 -8 10 -8 5 2 -4 6 -2 12 4 12 7 0 10 7 7 14 -4 9 -1 13 6 10 9 -3
13 23 14 96 3 94 -1 118 -13 87z"/>
<path d="M1485 1410 c3 -5 8 -10 11 -10 2 0 4 5 4 10 0 6 -5 10 -11 10 -5 0
-7 -4 -4 -10z"/>
<path d="M1510 1412 c0 -4 9 -8 19 -8 11 0 17 4 15 8 -3 4 -12 8 -20 8 -8 0
-14 -4 -14 -8z"/>
<path d="M1566 1374 c-5 -14 -4 -15 9 -4 13 11 14 8 9 -21 -4 -19 -7 -38 -8
-43 0 -5 5 -11 12 -13 10 -4 12 7 10 43 -3 48 -20 69 -32 38z"/>
<path d="M470 1352 c-33 -34 -48 -78 -33 -101 33 -53 127 15 121 87 -3 32 -7
37 -31 40 -19 2 -35 -5 -57 -26z m62 -32 c-3 -30 -30 -60 -54 -60 -25 0 -23
31 3 64 26 33 55 31 51 -4z"/>
<path d="M2043 1326 c-11 -19 -48 -36 -77 -36 -21 0 -26 -5 -26 -24 0 -14 5
-28 10 -31 6 -4 8 -10 5 -15 -3 -5 9 -19 27 -31 17 -13 28 -17 23 -9 -6 10 -3
12 13 8 16 -4 20 -2 17 13 -2 11 1 16 9 13 9 -4 13 12 15 61 2 65 -1 76 -16
51z m-56 -111 c0 -17 -13 -20 -21 -6 -4 5 0 12 6 14 7 3 13 6 14 6 0 1 1 -6 1
-14z"/>
<path d="M1470 1281 c0 -16 6 -31 14 -34 22 -9 51 0 48 14 -2 9 1 9 14 -2 10
-8 15 -9 11 -2 -4 6 -1 14 5 16 10 4 10 8 -2 16 -10 7 -19 6 -29 -2 -10 -8
-13 -8 -8 -1 4 7 0 15 -9 18 -32 12 -44 6 -44 -23z"/>
<path d="M682 1283 c2 -9 10 -18 18 -20 12 -4 13 -3 1 5 -7 5 -10 15 -7 21 4
6 2 11 -4 11 -6 0 -10 -8 -8 -17z"/>
<path d="M2168 1262 c-2 -27 2 -44 14 -57 18 -18 18 -18 36 0 12 13 16 30 14
57 -4 34 -7 38 -32 38 -25 0 -28 -4 -32 -38z"/>
<path d="M1247 1273 c-4 -3 -7 -11 -7 -17 0 -6 5 -5 12 2 6 6 9 14 7 17 -3 3
-9 2 -12 -2z"/>
<path d="M1070 1203 c0 -13 5 -23 10 -23 13 0 13 11 0 30 -8 12 -10 11 -10 -7z"/>
<path d="M1296 1202 c-2 -4 -1 -14 4 -22 7 -11 9 -9 7 8 -1 24 -3 26 -11 14z"/>
<path d="M1075 1150 c-4 -7 210 -10 634 -10 421 0 641 3 641 10 0 14 -1266 14
-1275 0z"/>
<path d="M2995 1500 c0 -828 1 -1166 2 -752 2 413 2 1091 0 1505 -1 413 -2 75
-2 -753z"/>
</g>
</svg>
