<svg version="1.1" id="Layer_1" xmlns="http://www.w3.org/2000/svg" xmlns:xlink="http://www.w3.org/1999/xlink" x="0px" y="0px"
	 width="100%" viewBox="0 0 600 315" enable-background="new 0 0 600 315" xml:space="preserve">
<path fill="#000000" opacity="1.000000" stroke="none" 
	d="
M394.000000,316.000000 
	C262.666656,316.000000 131.833328,316.000000 1.000000,316.000000 
	C1.000000,211.000000 1.000000,106.000000 1.000000,1.000000 
	C201.000000,1.000000 401.000000,1.000000 601.000000,1.000000 
	C601.000000,106.000000 601.000000,211.000000 601.000000,316.000000 
	C532.166687,316.000000 463.333344,316.000000 394.000000,316.000000 
M354.032471,196.980438 
	C354.032471,196.980438 354.093658,196.928070 353.762207,196.428238 
	C353.187317,196.391983 352.612427,196.355728 351.134705,196.162750 
	C348.085358,196.214844 345.035980,196.266937 341.206055,196.181320 
	C336.378357,194.836014 335.385956,199.933823 332.249359,201.656601 
	C331.365814,199.776672 330.539368,198.018188 329.503510,195.814163 
	C327.688385,196.211868 325.865112,196.611343 323.141602,196.945023 
	C321.416687,196.734894 319.691803,196.524780 317.506134,196.168854 
	C317.506134,196.168854 317.044983,196.313354 316.183960,196.146454 
	C313.884094,197.086655 310.369293,193.965256 308.902374,198.428284 
	C308.795013,198.672058 308.817139,198.891464 308.568848,199.763855 
	C307.679016,200.495743 306.834595,201.781342 305.891083,201.858749 
	C302.679474,202.122177 299.432922,201.959503 296.003967,201.959503 
	C297.217499,194.797119 304.163910,200.791046 306.758942,196.749863 
	C293.146729,194.280487 287.504669,199.354584 290.652069,210.882568 
	C296.758087,210.882568 302.883148,210.882568 309.595551,210.991898 
	C309.969391,210.659180 310.343201,210.326447 310.932678,209.326538 
	C310.949066,208.861938 310.965424,208.397339 311.173340,207.777267 
	C311.173340,207.777267 311.088074,207.338409 311.521912,206.717468 
	C312.350708,205.904404 313.179504,205.091354 314.367096,204.522812 
	C314.367096,204.522812 314.796387,204.588654 314.955811,205.326660 
	C315.223938,206.285446 315.492065,207.244232 315.608490,208.543213 
	C315.611786,208.812912 315.721893,209.027954 315.900818,209.965942 
	C317.266693,210.259232 318.632538,210.552521 320.580261,210.817062 
	C320.456604,210.333786 320.332947,209.850510 320.303894,208.766281 
	C320.181458,208.176132 320.059021,207.585968 320.003693,206.497314 
	C319.952087,206.337769 319.900513,206.178223 320.080597,205.311966 
	C321.378540,202.431656 322.676483,199.551346 324.681824,197.214844 
	C325.770020,201.580399 326.858215,205.945969 328.108276,210.960831 
	C328.345459,210.949234 329.877991,210.874359 331.399475,210.800003 
	C331.800507,208.937057 331.662842,207.107880 332.509583,206.139557 
	C334.476349,203.890457 336.918213,202.056778 339.579193,200.805344 
	C338.827667,204.089447 338.076111,207.373550 337.293457,210.793671 
	C338.985443,210.793671 340.411041,210.793671 341.754761,210.793671 
	C342.311523,209.058853 342.794861,207.552856 343.355804,205.804962 
	C348.181580,206.478592 352.576263,206.501160 355.663086,202.771683 
	C355.076447,205.333939 354.489807,207.896179 353.843018,210.721100 
	C355.603333,210.721100 357.147919,210.721100 358.694794,210.721100 
	C359.299713,206.977554 359.479980,203.043213 365.061432,205.239197 
	C364.735046,207.051773 364.423004,208.784760 364.062378,210.787537 
	C365.625916,210.787537 367.042755,210.787537 368.279785,210.787537 
	C369.862000,206.055984 371.390411,201.485336 373.837769,197.301697 
	C373.124451,200.362518 372.624115,203.493484 371.644562,206.466599 
	C370.387695,210.281448 371.953491,211.048492 375.423431,211.107666 
	C380.759491,211.198669 386.188934,211.960190 388.654846,205.518936 
	C388.359131,207.301834 388.063385,209.084732 387.767670,210.867630 
	C388.294037,211.001556 388.820435,211.135483 389.346832,211.269409 
	C390.361267,207.925064 391.375671,204.580719 392.405548,201.185364 
	C396.383911,203.651810 393.615875,213.483093 402.140015,210.640289 
	C403.469727,206.846832 404.646118,203.490692 406.598389,200.565369 
	C404.379913,208.704056 412.196930,203.848801 415.292480,207.733032 
	C411.318512,208.461349 408.039825,209.062241 404.187347,209.768280 
	C405.114655,210.564850 405.346710,210.938583 405.588013,210.944656 
	C408.245728,211.011353 410.905609,211.070648 413.563568,211.034424 
	C417.750854,210.977371 419.876434,208.630096 419.771210,203.960312 
	C419.676727,199.768799 416.303955,201.569519 414.184723,201.089737 
	C413.335022,200.897339 412.501434,200.633743 411.660492,200.402557 
	C411.631500,199.908249 411.602539,199.413925 411.573547,198.919601 
	C414.641876,198.531128 417.710205,198.142639 421.379364,197.678085 
	C415.351654,194.606842 409.660034,195.697952 405.299438,199.495407 
	C405.384003,198.408203 405.468536,197.320999 405.553101,196.233795 
	C405.065430,196.133408 404.577789,196.033005 404.090149,195.932617 
	C403.062683,199.193390 402.035187,202.454178 400.983063,205.793152 
	C397.324158,202.880142 399.601166,194.075439 391.505951,196.348434 
	C390.567810,198.084351 389.764435,199.570892 388.220184,200.602325 
	C389.028625,197.203766 387.794312,195.720474 384.226318,196.094193 
	C380.439056,196.490875 376.631744,196.696320 372.135468,196.731720 
	C370.619476,196.520874 369.103485,196.310028 367.459381,196.081375 
	C366.609924,199.904251 366.514069,204.153976 361.006378,201.751907 
	C361.259399,199.950745 361.501862,198.224838 361.760254,196.385681 
	C359.999359,196.385681 358.598846,196.385681 357.613129,196.385681 
	C356.694214,198.534714 355.938599,200.301941 354.484924,201.490417 
	C354.604828,200.327576 354.724731,199.164734 354.899689,197.463623 
	C354.617065,197.276505 354.334442,197.089371 354.032471,196.980438 
M270.500610,125.987755 
	C270.346680,125.894081 270.192749,125.800407 270.335968,125.084763 
	C270.644928,124.744186 270.953888,124.403610 272.159760,124.187485 
	C292.890259,124.135963 313.621277,124.140900 334.350586,123.955986 
	C336.735474,123.934708 339.110931,122.855278 341.490784,122.266464 
	C341.398987,121.896179 341.307190,121.525902 341.215363,121.155617 
	C334.807892,121.155617 328.400421,121.155617 321.498840,121.068993 
	C321.343018,121.129639 321.187195,121.190277 320.095612,121.143990 
	C304.053101,121.205826 288.010559,121.267670 271.506500,121.184059 
	C271.506500,121.184059 271.044037,121.326653 270.226166,121.152634 
	C267.084625,120.747467 264.440430,121.089470 262.781921,124.457024 
	C262.346893,125.340309 259.952728,126.111389 259.025757,125.688919 
	C257.802979,125.131622 256.476105,123.409775 256.348907,122.078232 
	C255.736816,115.671043 262.195648,107.451408 268.534332,105.759117 
	C270.365234,105.270317 271.985840,103.993752 273.702850,103.078346 
	C272.506714,101.711784 271.745148,101.452583 270.983154,101.451378 
	C256.013306,101.427742 241.043442,101.425507 226.073624,101.454185 
	C225.106918,101.456039 224.108566,101.636612 223.179932,101.916489 
	C219.295532,103.087204 215.420761,104.292824 211.565262,105.555321 
	C209.228470,106.320526 206.561966,106.757812 204.763275,108.224808 
	C203.734650,109.063744 203.970413,111.674576 204.000122,113.481667 
	C204.012192,114.216141 204.988815,114.934753 205.508636,115.636406 
	C206.884003,114.496864 207.991562,113.579208 209.449768,112.371017 
	C210.617828,117.418365 214.068130,118.395943 218.166153,118.192429 
	C220.983490,118.052513 223.791489,117.698204 226.609268,117.598351 
	C232.014221,117.406815 234.074783,120.061798 232.092331,125.035194 
	C230.938812,127.929039 228.918976,130.467255 227.630234,133.319687 
	C225.126953,138.860275 221.974075,144.319275 220.725266,150.161575 
	C219.133926,157.606277 224.770645,163.230515 232.556274,163.243042 
	C233.695221,163.220810 234.834167,163.198578 236.007858,163.974564 
	C238.325012,164.633545 240.642166,165.292526 242.959320,165.951508 
	C243.145844,166.431931 243.332367,166.912369 243.518890,167.392807 
	C241.461288,168.619568 239.539581,170.292465 237.314743,170.970123 
	C233.846603,172.026474 230.100021,172.154602 226.610092,173.158218 
	C224.029633,173.900269 221.968445,175.563843 223.448563,179.276154 
	C224.937958,178.226089 226.126785,177.387939 227.332001,176.538239 
	C228.255829,177.272507 229.106216,177.948395 229.741913,178.453659 
	C231.930420,176.694336 233.895996,175.114227 236.253036,173.219421 
	C236.762421,175.387039 237.063889,176.669922 237.262604,177.515564 
	C239.779541,177.282547 241.894913,177.086700 244.758453,177.019363 
	C246.170914,176.606796 247.583359,176.194229 249.673370,176.173813 
	C253.139862,178.220261 255.533936,176.844467 257.473694,173.795197 
	C260.323059,169.316040 263.098541,164.780823 266.165466,160.453735 
	C267.338104,158.799255 269.014801,157.204453 270.824127,156.346878 
	C283.095245,150.530457 295.423584,144.829666 307.823975,139.294281 
	C311.577026,137.618958 315.535217,136.190292 319.546875,135.366699 
	C323.627228,134.528976 325.388611,136.941605 324.178955,140.976013 
	C323.184113,144.293945 321.617889,147.511520 321.124817,150.893127 
	C320.279877,156.687683 323.347076,159.388535 330.050110,158.916763 
	C331.960938,159.253937 333.875702,159.570267 335.781799,159.932236 
	C341.140381,160.949829 346.495422,161.986176 352.232605,163.690033 
	C355.192841,164.697083 354.875519,166.636673 352.912170,167.993286 
	C351.268158,169.129242 349.029663,169.483902 347.003082,169.970978 
	C342.528168,171.046463 337.472321,171.014954 334.804535,177.013657 
	C344.546143,177.013657 353.598755,177.035675 362.650726,176.971832 
	C363.374054,176.966751 364.378967,176.569824 364.769287,176.014816 
	C368.067108,171.325562 371.252350,166.557114 375.458801,160.357132 
	C369.736176,160.106537 365.467499,159.919617 360.327209,159.734802 
	C358.703766,159.485474 357.080322,159.236145 355.274170,158.226151 
	C352.385925,155.698441 352.405487,153.117569 354.861542,150.220749 
	C356.554657,148.223724 358.149567,146.081055 359.411469,143.795410 
	C361.298737,140.377106 363.323120,136.846588 361.253998,132.542969 
	C361.253998,132.542969 360.951416,132.249023 360.814514,131.536926 
	C356.607880,126.176025 350.661713,126.614754 344.318146,126.507851 
	C343.993591,126.629944 343.669037,126.752037 342.611359,126.532356 
	C336.170715,126.496033 329.729401,126.385338 323.289551,126.439857 
	C312.083496,126.534714 300.878357,126.731537 289.240967,126.492363 
	C288.858856,126.480553 288.476746,126.468742 287.187317,126.176826 
	C282.445770,126.226036 277.704193,126.275246 272.307587,126.149498 
	C271.859650,126.188507 271.411713,126.227516 270.500610,125.987755 
M234.916718,211.027283 
	C238.664871,211.027283 242.413025,211.027283 246.161179,211.027283 
	C246.150635,210.430710 246.140106,209.834152 246.129578,209.237579 
	C243.829254,209.070114 241.528931,208.902664 239.000824,208.718613 
	C239.971985,204.449997 240.870193,200.502060 241.938828,195.805054 
	C239.838928,196.294235 238.354706,196.639984 236.393143,196.985916 
	C236.393143,196.985916 235.916290,197.007599 235.358231,196.394714 
	C233.565155,196.295303 231.772385,196.120667 229.978928,196.113312 
	C226.960846,196.100922 223.606918,195.288055 221.393555,198.530502 
	C221.301422,197.783417 221.209290,197.036331 221.117172,196.289246 
	C220.435654,196.794540 219.330750,197.177124 219.142792,197.825485 
	C218.091797,201.450989 217.262421,205.140732 216.389694,208.677368 
	C213.687210,208.677368 211.443390,208.677368 208.953079,208.677368 
	C209.917099,204.416672 210.810135,200.469727 211.686569,196.596130 
	C208.136856,195.224792 206.856247,196.676559 206.144257,199.631531 
	C205.666870,201.612778 204.544678,203.438660 203.422180,204.466263 
	C202.744339,203.634247 202.147202,202.186203 201.373627,202.084854 
	C198.979446,201.771179 196.518112,201.970230 193.687836,201.970230 
	C195.347702,195.121460 201.494171,200.289902 204.342194,197.297348 
	C195.743942,193.529617 190.427887,195.910095 188.360916,204.267960 
	C186.735794,210.839264 186.883636,211.036896 193.409119,211.033630 
	C196.185059,211.032257 198.960983,211.033417 201.386078,211.033417 
	C202.313049,208.810364 203.049225,207.044891 204.695007,205.533829 
	C204.952972,207.297363 204.582108,209.955612 205.584427,210.660080 
	C208.856949,212.960129 217.817352,210.379837 220.669128,207.645844 
	C220.529724,208.680466 220.390305,209.715103 220.214996,211.016220 
	C224.477234,211.016220 228.258316,211.016220 232.689362,211.065903 
	C233.123062,211.045059 233.556763,211.024216 234.916718,211.027283 
M251.488998,196.222076 
	C251.227005,196.819107 250.965012,197.416138 250.259491,198.701508 
	C249.315552,202.663971 248.371613,206.626419 247.373795,210.815033 
	C248.925201,210.815033 250.354599,210.815033 251.947479,210.815033 
	C252.421249,209.245529 252.879196,207.728470 252.922546,207.584885 
	C257.727509,205.790634 261.498291,204.382568 265.567841,203.778275 
	C265.040771,206.014038 264.513702,208.249802 263.916473,210.783035 
	C265.574982,210.783035 266.992859,210.783035 268.584564,210.783035 
	C269.704346,207.787949 269.198547,202.692352 275.175110,205.296600 
	C274.867279,207.111053 274.572174,208.850601 274.237427,210.823822 
	C275.809357,210.823822 277.240082,210.823822 278.851105,210.823822 
	C279.976135,206.006042 281.080658,201.276077 282.185181,196.546127 
	C281.692413,196.182526 281.199646,195.818939 280.706879,195.455338 
	C279.450897,196.611099 277.408081,197.584839 277.090515,198.957657 
	C276.232239,202.667969 274.264465,202.952637 271.092438,201.837738 
	C271.374420,200.055786 271.646606,198.335602 271.952271,196.403961 
	C270.197845,196.403961 268.799347,196.403961 267.742126,196.403961 
	C266.779572,198.872437 265.961395,200.970688 264.357422,202.525757 
	C264.522919,201.014191 264.688446,199.502625 264.907257,197.439926 
	C264.621155,197.244644 264.335022,197.049362 263.609955,196.344391 
	C262.728333,196.340790 261.846680,196.337173 260.506378,196.191147 
	C260.506378,196.191147 260.049286,196.338531 259.323395,196.162674 
	C256.883942,196.219711 254.444519,196.276764 251.488998,196.222076 
M289.558838,153.170685 
	C291.309143,155.022354 292.801758,157.265518 294.873291,158.629227 
	C297.626099,160.441437 297.832916,162.078049 295.487854,164.052460 
	C291.839478,167.124146 288.344788,170.250153 282.910065,170.139191 
	C279.192078,170.063278 275.033295,170.446228 272.734314,175.503403 
	C281.593292,175.503403 289.838715,175.572067 298.080292,175.425003 
	C299.238495,175.404343 300.535309,174.515945 301.499451,173.708557 
	C306.458221,169.555893 311.413574,165.389847 316.164276,161.005402 
	C317.190704,160.058090 318.284119,157.524979 317.795288,156.856094 
	C313.811432,151.404816 317.039734,147.639755 320.194702,143.575638 
	C321.044373,142.481125 320.959595,140.661179 321.303741,139.174240 
	C319.767822,138.939819 317.938416,138.044907 316.742676,138.576157 
	C307.673035,142.605576 298.723267,146.905426 289.762329,151.175919 
	C289.474457,151.313095 289.468536,152.041870 289.558838,153.170685 
M288.500214,118.040039 
	C307.655518,118.040245 326.811157,118.096985 345.965607,117.968117 
	C348.321960,117.952278 350.671661,116.944862 353.024445,116.396950 
	C352.927399,115.847458 352.830353,115.297966 352.733337,114.748474 
	C327.913269,114.748474 303.093231,114.748474 278.273193,114.748474 
	C278.272369,114.238152 278.271545,113.727837 278.270721,113.217514 
	C279.972412,113.217514 281.674103,113.217514 283.375793,113.217522 
	C307.361542,113.217552 331.347626,113.275009 355.332581,113.136940 
	C358.001587,113.121582 360.664215,111.993279 363.329803,111.381111 
	C363.233612,110.907394 363.137390,110.433678 363.041199,109.959961 
	C361.418945,109.959961 359.796722,109.957237 358.174469,109.960358 
	C331.525116,110.011719 304.875732,110.066040 278.226379,110.114182 
	C271.616180,110.126122 270.055664,111.304108 267.977539,118.040039 
	C274.519196,118.040039 281.009796,118.040039 288.500214,118.040039 
M321.500000,99.972610 
	C309.345490,99.971977 297.190948,99.971359 285.036438,99.970688 
	C278.128937,99.970314 276.972229,100.827843 274.577637,107.871292 
	C305.427582,107.871292 336.211395,107.906113 366.994659,107.791290 
	C369.001099,107.783806 371.003265,106.628105 373.007446,106.006508 
	C372.903748,105.534637 372.800079,105.062767 372.696381,104.590897 
	C343.452362,104.590897 314.208344,104.590897 284.964325,104.590897 
	C284.938049,104.165405 284.911774,103.739914 284.885498,103.314423 
	C286.571625,103.219193 288.257599,103.044685 289.943939,103.040535 
	C318.580566,102.969963 347.217468,102.963852 375.853485,102.796516 
	C378.587494,102.780548 381.315796,101.787094 384.046783,101.247429 
	C383.972015,100.822495 383.897278,100.397552 383.822540,99.972610 
	C363.381683,99.972610 342.940857,99.972610 321.500000,99.972610 
M389.307587,149.566681 
	C384.835876,144.900543 380.603546,139.969574 375.821625,135.646561 
	C371.481689,131.723160 367.656464,130.807236 363.488251,131.363342 
	C367.032013,136.789703 377.030945,137.492279 375.471161,146.203964 
	C383.646942,154.263245 395.941315,156.055038 403.264618,164.808578 
	C405.525513,164.266479 408.105469,163.356476 410.752808,163.070496 
	C417.363312,162.356354 420.345215,159.208145 419.379150,152.744293 
	C416.157074,158.667480 411.140198,160.435593 405.774719,158.057419 
	C401.174255,156.018326 397.278076,152.390274 392.701752,149.208618 
	C392.543091,149.249344 391.263611,149.577682 389.307587,149.566681 
M210.335068,148.805359 
	C212.779282,149.530136 215.223511,150.254929 217.517609,150.935196 
	C218.403290,147.228897 219.227386,143.780243 220.299927,139.291901 
	C209.555725,143.825653 201.388992,139.321411 193.413239,133.659073 
	C191.814072,132.523758 189.602631,132.250885 188.872620,131.997147 
	C187.403152,134.215591 186.545944,135.509720 185.661316,136.845245 
	C189.792328,136.647949 193.251038,138.711700 194.039536,142.717590 
	C194.324020,144.162811 190.839615,146.349930 188.597885,148.698441 
	C191.664413,148.698441 194.652756,148.715836 197.640839,148.694168 
	C201.601746,148.665436 205.562424,148.606186 210.335068,148.805359 
z"/>
<path fill="#E01D38" opacity="1.000000" stroke="none" 
	d="
M351.851837,163.015137 
	C346.495422,161.986176 341.140381,160.949829 335.781799,159.932236 
	C333.875702,159.570267 331.960938,159.253937 329.459717,158.534561 
	C328.333282,156.515213 327.167542,154.787598 327.387085,153.259003 
	C327.906403,149.644089 328.905945,146.065872 330.039398,142.579453 
	C331.558563,137.906494 329.509247,133.636597 324.796478,133.173340 
	C321.730225,132.871933 318.309235,132.807083 315.503571,133.856491 
	C306.887909,137.079041 298.473450,140.846054 290.017456,144.486633 
	C284.211731,146.986206 278.467102,149.627655 272.695190,152.205688 
	C272.445801,151.885803 272.196442,151.565903 271.947083,151.246002 
	C273.786621,148.044846 275.626190,144.843704 277.589447,141.427322 
	C273.738251,140.256195 271.278137,140.775757 269.226440,144.126190 
	C264.295685,152.178223 259.011963,160.014130 253.576431,168.085510 
	C252.872055,169.163162 252.461884,170.092545 252.032288,171.014740 
	C252.012863,171.007553 252.039276,171.039276 251.692017,171.105392 
	C249.472321,172.328735 247.599854,173.485962 244.524612,175.386536 
	C245.369614,172.504623 245.712875,171.333893 246.273514,169.952576 
	C249.186096,161.981674 253.140930,154.511505 252.239700,145.716202 
	C251.437943,145.490463 250.752731,145.049484 250.231323,145.195053 
	C248.307770,145.732162 246.438416,146.463333 244.548691,147.121521 
	C245.269150,148.859390 245.661987,150.855057 246.782074,152.278442 
	C248.773315,154.808899 248.065887,159.913620 244.578995,161.518265 
	C242.001816,162.704269 238.862167,162.668045 235.973114,163.176331 
	C234.834167,163.198578 233.695221,163.220810 232.124969,162.758545 
	C226.327103,157.713623 225.359940,153.818420 228.860458,147.671555 
	C231.796783,142.515396 235.735962,137.907974 238.442490,132.651535 
	C240.129547,129.375061 241.474121,125.182678 240.972412,121.688492 
	C240.178223,116.157333 230.843842,112.831062 223.712875,114.688873 
	C219.537827,115.776588 219.540222,115.776604 219.544113,112.492523 
	C219.544296,112.345459 219.429840,112.198265 219.409485,112.149231 
	C218.442474,110.932121 217.539124,109.795151 216.401871,108.363792 
	C222.544662,106.609589 228.184921,104.179962 234.117371,108.045609 
	C237.239182,110.079796 238.286530,108.257286 238.308777,104.664268 
	C244.817535,104.664268 251.284668,104.664268 257.892883,104.664268 
	C255.747589,109.562263 253.545700,114.125046 251.736420,118.838531 
	C249.497849,124.670334 250.990387,126.898109 256.895782,128.165405 
	C258.143036,128.433075 260.035278,130.337204 259.958588,131.362289 
	C259.530151,137.089569 260.649689,138.155838 266.380310,136.591339 
	C264.103973,132.610291 267.659973,131.144989 270.017334,129.256561 
	C271.196381,129.636932 272.011993,129.888016 272.824066,129.877151 
	C296.845062,129.555923 320.865662,129.208694 345.182434,128.955826 
	C351.309631,130.661789 354.632965,133.911789 353.528900,137.551407 
	C352.642181,140.474426 350.773315,143.085144 349.544739,145.922943 
	C348.385529,148.600494 346.292145,151.618561 346.754303,154.084991 
	C347.518585,158.163528 351.523163,159.113312 355.456879,158.986816 
	C357.080322,159.236145 358.703766,159.485474 361.003967,159.570709 
	C368.234711,163.021729 368.274414,163.063614 364.409943,168.962219 
	C363.350647,170.579132 362.020386,172.018524 360.399200,173.684357 
	C357.090424,173.829346 354.196869,173.829346 351.128845,173.829346 
	C352.001160,172.411285 352.662109,171.336853 353.661072,170.149948 
	C356.532135,168.931274 359.224609,167.624588 357.543518,164.282654 
	C356.438263,162.085419 354.301025,160.953354 351.851837,163.015137 
z"/>
<path fill="#EDB827" opacity="1.000000" stroke="none" 
	d="
M355.365540,158.606476 
	C351.523163,159.113312 347.518585,158.163528 346.754303,154.084991 
	C346.292145,151.618561 348.385529,148.600494 349.544739,145.922943 
	C350.773315,143.085144 352.642181,140.474426 353.528900,137.551407 
	C354.632965,133.911789 351.309631,130.661789 344.839233,128.750732 
	C343.382996,128.316818 342.565979,128.056641 341.749207,128.057404 
	C318.646576,128.079239 295.543915,128.117722 272.441467,128.206238 
	C271.510742,128.209793 270.581940,128.727188 269.652252,129.005173 
	C267.659973,131.144989 264.103973,132.610291 266.380310,136.591339 
	C260.649689,138.155838 259.530151,137.089569 259.958588,131.362289 
	C260.035278,130.337204 258.143036,128.433075 256.895782,128.165405 
	C250.990387,126.898109 249.497849,124.670334 251.736420,118.838531 
	C253.545700,114.125046 255.747589,109.562263 257.892883,104.664268 
	C251.284668,104.664268 244.817535,104.664268 238.308777,104.664268 
	C238.286530,108.257286 237.239182,110.079796 234.117371,108.045609 
	C228.184921,104.179962 222.544662,106.609589 216.401871,108.363792 
	C217.539124,109.795151 218.442474,110.932121 219.409485,112.149231 
	C219.429840,112.198265 219.544296,112.345459 219.544113,112.492523 
	C219.540222,115.776604 219.537827,115.776588 223.712875,114.688873 
	C230.843842,112.831062 240.178223,116.157333 240.972412,121.688492 
	C241.474121,125.182678 240.129547,129.375061 238.442490,132.651535 
	C235.735962,137.907974 231.796783,142.515396 228.860458,147.671555 
	C225.359940,153.818420 226.327103,157.713623 231.854614,162.576508 
	C224.770645,163.230515 219.133926,157.606277 220.725266,150.161575 
	C221.974075,144.319275 225.126953,138.860275 227.630234,133.319687 
	C228.918976,130.467255 230.938812,127.929039 232.092331,125.035194 
	C234.074783,120.061798 232.014221,117.406815 226.609268,117.598351 
	C223.791489,117.698204 220.983490,118.052513 218.166153,118.192429 
	C214.068130,118.395943 210.617828,117.418365 209.449768,112.371017 
	C207.991562,113.579208 206.884003,114.496864 205.508636,115.636406 
	C204.988815,114.934753 204.012192,114.216141 204.000122,113.481667 
	C203.970413,111.674576 203.734650,109.063744 204.763275,108.224808 
	C206.561966,106.757812 209.228470,106.320526 211.565262,105.555321 
	C215.420761,104.292824 219.295532,103.087204 223.179932,101.916489 
	C224.108566,101.636612 225.106918,101.456039 226.073624,101.454185 
	C241.043442,101.425507 256.013306,101.427742 270.983154,101.451378 
	C271.745148,101.452583 272.506714,101.711784 273.702850,103.078346 
	C271.985840,103.993752 270.365234,105.270317 268.534332,105.759117 
	C262.195648,107.451408 255.736816,115.671043 256.348907,122.078232 
	C256.476105,123.409775 257.802979,125.131622 259.025757,125.688919 
	C259.952728,126.111389 262.346893,125.340309 262.781921,124.457024 
	C264.440430,121.089470 267.084625,120.747467 270.739899,121.317680 
	C271.253632,121.482727 271.631409,121.516495 271.631409,121.516495 
	C271.631409,121.516495 271.968048,121.329506 271.968048,121.329514 
	C288.010559,121.267670 304.053101,121.205826 320.679413,121.272766 
	C321.553528,121.475693 321.796783,121.393723 321.992950,121.155617 
	C328.400421,121.155617 334.807892,121.155617 341.215363,121.155617 
	C341.307190,121.525902 341.398987,121.896179 341.490784,122.266464 
	C339.110931,122.855278 336.735474,123.934708 334.350586,123.955986 
	C313.621277,124.140900 292.890259,124.135963 271.506409,124.210922 
	C270.581604,124.725151 270.310211,125.215942 270.038818,125.706734 
	C270.192749,125.800407 270.346680,125.894081 270.912994,126.255859 
	C271.871124,126.457466 272.416901,126.390961 272.962646,126.324455 
	C277.704193,126.275246 282.445770,126.226036 287.890381,126.429749 
	C288.953247,126.750305 289.313049,126.817947 289.672821,126.885605 
	C300.878357,126.731537 312.083496,126.534714 323.289551,126.439857 
	C329.729401,126.385338 336.170715,126.496033 343.225769,126.706673 
	C344.169220,126.870277 344.492676,126.822212 344.810547,126.736786 
	C350.661713,126.614754 356.607880,126.176025 360.907837,131.976379 
	C361.001129,132.415817 361.135040,132.736481 361.135040,132.736481 
	C363.323120,136.846588 361.298737,140.377106 359.411469,143.795410 
	C358.149567,146.081055 356.554657,148.223724 354.861542,150.220749 
	C352.405487,153.117569 352.385925,155.698441 355.365540,158.606476 
z"/>
<path fill="#F6BD24" opacity="1.000000" stroke="none" 
	d="
M289.445007,152.832764 
	C289.468536,152.041870 289.474457,151.313095 289.762329,151.175919 
	C298.723267,146.905426 307.673035,142.605576 316.742676,138.576157 
	C317.938416,138.044907 319.767822,138.939819 321.303772,139.174240 
	C320.959595,140.661179 321.044373,142.481125 320.194702,143.575638 
	C317.039734,147.639755 313.811432,151.404816 317.795288,156.856094 
	C318.284119,157.524979 317.190704,160.058090 316.164276,161.005402 
	C311.413574,165.389847 306.458221,169.555893 301.499451,173.708557 
	C300.535309,174.515945 299.238495,175.404343 298.080292,175.425003 
	C289.838715,175.572067 281.593292,175.503403 272.734314,175.503403 
	C275.033295,170.446228 279.192078,170.063278 282.910065,170.139191 
	C288.344788,170.250153 291.839478,167.124146 295.487854,164.052460 
	C297.832916,162.078049 297.626099,160.441437 294.873291,158.629227 
	C292.801758,157.265518 291.309143,155.022354 289.445007,152.832764 
z"/>
<path fill="#EBB522" opacity="1.000000" stroke="none" 
	d="
M288.000305,118.040039 
	C281.009796,118.040039 274.519196,118.040039 267.977539,118.040039 
	C270.055664,111.304108 271.616180,110.126122 278.226379,110.114182 
	C304.875732,110.066040 331.525116,110.011719 358.174469,109.960358 
	C359.796722,109.957237 361.418945,109.959961 363.041199,109.959961 
	C363.137390,110.433678 363.233612,110.907394 363.329803,111.381111 
	C360.664215,111.993279 358.001587,113.121582 355.332581,113.136940 
	C331.347626,113.275009 307.361542,113.217552 283.375793,113.217522 
	C281.674103,113.217514 279.972412,113.217514 278.270721,113.217514 
	C278.271545,113.727837 278.272369,114.238152 278.273193,114.748474 
	C303.093231,114.748474 327.913269,114.748474 352.733337,114.748474 
	C352.830353,115.297966 352.927399,115.847458 353.024445,116.396950 
	C350.671661,116.944862 348.321960,117.952278 345.965607,117.968117 
	C326.811157,118.096985 307.655518,118.040245 288.000305,118.040039 
z"/>
<path fill="#F0B923" opacity="1.000000" stroke="none" 
	d="
M322.000000,99.972610 
	C342.940857,99.972610 363.381683,99.972610 383.822540,99.972610 
	C383.897278,100.397552 383.972015,100.822495 384.046783,101.247429 
	C381.315796,101.787094 378.587494,102.780548 375.853485,102.796516 
	C347.217468,102.963852 318.580566,102.969963 289.943939,103.040535 
	C288.257599,103.044685 286.571625,103.219193 284.885498,103.314423 
	C284.911774,103.739914 284.938049,104.165405 284.964325,104.590897 
	C314.208344,104.590897 343.452362,104.590897 372.696381,104.590897 
	C372.800079,105.062767 372.903748,105.534637 373.007446,106.006508 
	C371.003265,106.628105 369.001099,107.783806 366.994659,107.791290 
	C336.211395,107.906113 305.427582,107.871292 274.577637,107.871292 
	C276.972229,100.827843 278.128937,99.970314 285.036438,99.970688 
	C297.190948,99.971359 309.345490,99.971977 322.000000,99.972610 
z"/>
<path fill="#F1BB2A" opacity="1.000000" stroke="none" 
	d="
M253.870621,167.937225 
	C259.011963,160.014130 264.295685,152.178223 269.226440,144.126190 
	C271.278137,140.775757 273.738251,140.256195 277.589447,141.427322 
	C275.626190,144.843704 273.786621,148.044846 271.947083,151.246002 
	C272.196442,151.565903 272.445801,151.885803 272.695190,152.205688 
	C278.467102,149.627655 284.211731,146.986206 290.017456,144.486633 
	C298.473450,140.846054 306.887909,137.079041 315.503571,133.856491 
	C318.309235,132.807083 321.730225,132.871933 324.796478,133.173340 
	C329.509247,133.636597 331.558563,137.906494 330.039398,142.579453 
	C328.905945,146.065872 327.906403,149.644089 327.387085,153.259003 
	C327.167542,154.787598 328.333282,156.515213 329.073608,158.441528 
	C323.347076,159.388535 320.279877,156.687683 321.124817,150.893127 
	C321.617889,147.511520 323.184113,144.293945 324.178955,140.976013 
	C325.388611,136.941605 323.627228,134.528976 319.546875,135.366699 
	C315.535217,136.190292 311.577026,137.618958 307.823975,139.294281 
	C295.423584,144.829666 283.095245,150.530457 270.824127,156.346878 
	C269.014801,157.204453 267.338104,158.799255 266.165466,160.453735 
	C263.098541,164.780823 260.323059,169.316040 257.473694,173.795197 
	C255.533936,176.844467 253.139862,178.220261 249.536926,175.727417 
	C250.280090,173.867096 251.159683,172.453186 252.039276,171.039276 
	C252.039276,171.039276 252.012863,171.007553 252.347412,170.930771 
	C253.078171,169.881729 253.474396,168.909485 253.870621,167.937225 
z"/>
<path fill="#F0B923" opacity="1.000000" stroke="none" 
	d="
M389.645844,149.736359 
	C391.263611,149.577682 392.543091,149.249344 392.701752,149.208618 
	C397.278076,152.390274 401.174255,156.018326 405.774719,158.057419 
	C411.140198,160.435593 416.157074,158.667480 419.379150,152.744293 
	C420.345215,159.208145 417.363312,162.356354 410.752808,163.070496 
	C408.105469,163.356476 405.525513,164.266479 403.264618,164.808578 
	C395.941315,156.055038 383.646942,154.263245 375.471161,146.203964 
	C377.030945,137.492279 367.032013,136.789703 363.488953,131.362823 
	C367.656464,130.807236 371.481689,131.723160 375.821625,135.646561 
	C380.603546,139.969574 384.835876,144.900543 389.645844,149.736359 
z"/>
<path fill="#F4BC23" opacity="1.000000" stroke="none" 
	d="
M209.929138,148.682709 
	C205.562424,148.606186 201.601746,148.665436 197.640839,148.694168 
	C194.652756,148.715836 191.664413,148.698441 188.597885,148.698441 
	C190.839615,146.349930 194.324020,144.162811 194.039536,142.717590 
	C193.251038,138.711700 189.792328,136.647949 185.661316,136.845245 
	C186.545944,135.509720 187.403152,134.215591 188.872620,131.997147 
	C189.602631,132.250885 191.814072,132.523758 193.413239,133.659073 
	C201.388992,139.321411 209.555725,143.825653 220.299927,139.291901 
	C219.227386,143.780243 218.403290,147.228897 217.517609,150.935196 
	C215.223511,150.254929 212.779282,149.530136 209.929138,148.682709 
z"/>
<path fill="#EBB622" opacity="1.000000" stroke="none" 
	d="
M310.981812,207.932739 
	C310.965424,208.397339 310.949066,208.861938 310.584473,209.713165 
	C309.826904,210.360718 309.417542,210.621628 309.008179,210.882568 
	C302.883148,210.882568 296.758087,210.882568 290.652069,210.882568 
	C287.504669,199.354584 293.146729,194.280487 306.758942,196.749863 
	C304.163910,200.791046 297.217499,194.797119 296.003967,201.959503 
	C299.432922,201.959503 302.679474,202.122177 305.891083,201.858749 
	C306.834595,201.781342 307.679016,200.495743 308.798218,199.221741 
	C309.027618,198.679642 309.076569,198.272446 309.076569,198.272446 
	C310.369293,193.965256 313.884094,197.086655 316.720032,196.304916 
	C317.256104,196.463379 317.630615,196.495926 317.630615,196.495926 
	C317.630615,196.495926 317.966888,196.314667 317.966888,196.314667 
	C319.691803,196.524780 321.416687,196.734894 323.608643,196.920792 
	C324.075684,196.896561 323.974426,196.671021 323.974426,196.671021 
	C322.676483,199.551346 321.378540,202.431656 319.883484,205.782196 
	C319.600281,206.550125 319.683685,206.797913 319.936584,206.995819 
	C320.059021,207.585968 320.181458,208.176132 320.199463,209.436401 
	C320.062775,210.352951 320.030579,210.599380 319.998413,210.845795 
	C318.632538,210.552521 317.266693,210.259232 315.915344,209.408691 
	C315.905609,208.626846 315.849060,208.410706 315.760193,208.203018 
	C315.492065,207.244232 315.223938,206.285446 314.932648,204.524902 
	C314.938751,203.433960 314.968048,203.144775 315.347137,202.757462 
	C316.928772,201.579315 318.160614,200.499329 320.123871,198.778046 
	C312.837677,197.755371 312.222321,198.328629 314.005371,203.214905 
	C314.006958,203.805664 314.007599,204.041962 314.008270,204.278290 
	C313.179504,205.091354 312.350708,205.904404 311.285919,207.126556 
	C311.049927,207.535629 310.981812,207.932739 310.981812,207.932739 
M300.374359,207.080902 
	C301.408417,201.459457 297.026550,205.415833 295.436707,203.642715 
	C295.077850,205.695450 294.832825,207.097000 294.418060,209.469666 
	C296.666046,208.842194 298.384949,208.362396 300.374359,207.080902 
M306.051483,207.569199 
	C305.515228,207.918594 304.978943,208.267990 304.442688,208.617371 
	C304.747070,208.927002 305.051422,209.236618 305.355804,209.546249 
	C305.718903,209.020950 306.082001,208.495667 306.051483,207.569199 
M306.697449,204.964355 
	C306.751587,204.451645 306.805695,203.938934 306.859802,203.426208 
	C306.422394,203.549911 305.984955,203.673599 305.547546,203.797318 
	C305.777771,204.239807 306.007996,204.682297 306.697449,204.964355 
z"/>
<path fill="#EEBA2C" opacity="1.000000" stroke="none" 
	d="
M235.990479,163.575455 
	C238.862167,162.668045 242.001816,162.704269 244.578995,161.518265 
	C248.065887,159.913620 248.773315,154.808899 246.782074,152.278442 
	C245.661987,150.855057 245.269150,148.859390 244.548691,147.121521 
	C246.438416,146.463333 248.307770,145.732162 250.231323,145.195053 
	C250.752731,145.049484 251.437943,145.490463 252.239700,145.716202 
	C253.140930,154.511505 249.186096,161.981674 245.976746,170.093674 
	C243.091034,172.168533 240.380615,173.815399 244.010300,176.890839 
	C241.894913,177.086700 239.779541,177.282547 237.262604,177.515564 
	C237.063889,176.669922 236.762421,175.387039 236.253036,173.219421 
	C233.895996,175.114227 231.930420,176.694336 229.741913,178.453659 
	C229.106216,177.948395 228.255829,177.272507 227.332001,176.538239 
	C226.126785,177.387939 224.937958,178.226089 223.448563,179.276154 
	C221.968445,175.563843 224.029633,173.900269 226.610092,173.158218 
	C230.100021,172.154602 233.846603,172.026474 237.314743,170.970123 
	C239.539581,170.292465 241.461288,168.619568 243.518890,167.392807 
	C243.332367,166.912369 243.145844,166.431931 242.959320,165.951508 
	C240.642166,165.292526 238.325012,164.633545 235.990479,163.575455 
z"/>
<path fill="#F1BB28" opacity="1.000000" stroke="none" 
	d="
M352.042236,163.352585 
	C354.301025,160.953354 356.438263,162.085419 357.543518,164.282654 
	C359.224609,167.624588 356.532135,168.931274 353.314941,170.209503 
	C350.872437,171.693024 349.114014,173.004501 347.355621,174.315994 
	C347.609253,174.817551 347.862885,175.319122 348.116486,175.820679 
	C351.824127,175.820679 355.536865,175.916550 359.233887,175.718826 
	C359.797974,175.688644 360.289398,174.299805 360.814453,173.539368 
	C362.020386,172.018524 363.350647,170.579132 364.409943,168.962219 
	C368.274414,163.063614 368.234711,163.021729 361.439789,159.569641 
	C365.467499,159.919617 369.736176,160.106537 375.458801,160.357132 
	C371.252350,166.557114 368.067108,171.325562 364.769287,176.014816 
	C364.378967,176.569824 363.374054,176.966751 362.650726,176.971832 
	C353.598755,177.035675 344.546143,177.013657 334.804535,177.013657 
	C337.472321,171.014954 342.528168,171.046463 347.003082,169.970978 
	C349.029663,169.483902 351.268158,169.129242 352.912170,167.993286 
	C354.875519,166.636673 355.192841,164.697083 352.042236,163.352585 
z"/>
<path fill="#E7B221" opacity="1.000000" stroke="none" 
	d="
M355.182953,202.069168 
	C355.938599,200.301941 356.694214,198.534714 357.613129,196.385681 
	C358.598846,196.385681 359.999359,196.385681 361.760254,196.385681 
	C361.501862,198.224838 361.259399,199.950745 361.006378,201.751907 
	C366.514069,204.153976 366.609924,199.904251 367.459381,196.081375 
	C369.103485,196.310028 370.619476,196.520874 372.504272,196.839050 
	C372.873047,196.946381 372.918823,196.914688 372.918823,196.914688 
	C371.390411,201.485336 369.862000,206.055984 368.279785,210.787537 
	C367.042755,210.787537 365.625916,210.787537 364.062378,210.787537 
	C364.423004,208.784760 364.735046,207.051773 365.061432,205.239197 
	C359.479980,203.043213 359.299713,206.977554 358.694794,210.721100 
	C357.147919,210.721100 355.603333,210.721100 353.843018,210.721100 
	C354.489807,207.896179 355.076447,205.333939 355.459595,202.400284 
	C355.256104,202.028885 355.182953,202.069168 355.182953,202.069168 
z"/>
<path fill="#E5B121" opacity="1.000000" stroke="none" 
	d="
M265.143188,203.068939 
	C265.961395,200.970688 266.779572,198.872437 267.742126,196.403961 
	C268.799347,196.403961 270.197845,196.403961 271.952271,196.403961 
	C271.646606,198.335602 271.374420,200.055786 271.092438,201.837738 
	C274.264465,202.952637 276.232239,202.667969 277.090515,198.957657 
	C277.408081,197.584839 279.450897,196.611099 280.706879,195.455338 
	C281.199646,195.818939 281.692413,196.182526 282.185181,196.546127 
	C281.080658,201.276077 279.976135,206.006042 278.851105,210.823822 
	C277.240082,210.823822 275.809357,210.823822 274.237427,210.823822 
	C274.572174,208.850601 274.867279,207.111053 275.175110,205.296600 
	C269.198547,202.692352 269.704346,207.787949 268.584564,210.783035 
	C266.992859,210.783035 265.574982,210.783035 263.916473,210.783035 
	C264.513702,208.249802 265.040771,206.014038 265.390198,203.406006 
	C265.212585,203.033737 265.143219,203.068939 265.143188,203.068939 
z"/>
<path fill="#EBB622" opacity="1.000000" stroke="none" 
	d="
M372.853119,196.965836 
	C376.631744,196.696320 380.439056,196.490875 384.226318,196.094193 
	C387.794312,195.720474 389.028625,197.203766 388.619629,200.807312 
	C389.019104,201.012314 388.992676,200.943710 388.569946,201.031250 
	C388.086517,202.427338 388.025787,203.735886 387.991699,205.047073 
	C388.018372,205.049728 388.008331,204.998291 388.008331,204.998291 
	C386.188934,211.960190 380.759491,211.198669 375.423431,211.107666 
	C371.953491,211.048492 370.387695,210.281448 371.644562,206.466599 
	C372.624115,203.493484 373.124451,200.362518 373.378296,197.108185 
	C372.918823,196.914688 372.873047,196.946381 372.853119,196.965836 
M379.696381,198.198044 
	C378.272766,201.560959 376.849121,204.923874 375.376648,208.402252 
	C383.380249,210.636612 381.811646,204.702042 383.162018,201.448853 
	C384.329071,198.637360 383.042877,197.906296 379.696381,198.198044 
z"/>
<path fill="#E7B221" opacity="1.000000" stroke="none" 
	d="
M388.990082,201.034866 
	C389.764435,199.570892 390.567810,198.084351 391.505951,196.348434 
	C399.601166,194.075439 397.324158,202.880142 400.983063,205.793152 
	C402.035187,202.454178 403.062683,199.193390 404.090149,195.932617 
	C404.577789,196.033005 405.065430,196.133408 405.553101,196.233795 
	C405.468536,197.320999 405.384003,198.408203 405.541443,199.834106 
	C405.783478,200.172791 405.822571,200.134552 405.822571,200.134552 
	C404.646118,203.490692 403.469727,206.846832 402.140015,210.640289 
	C393.615875,213.483093 396.383911,203.651810 392.405548,201.185364 
	C391.375671,204.580719 390.361267,207.925064 389.346832,211.269409 
	C388.820435,211.135483 388.294037,211.001556 387.767670,210.867630 
	C388.063385,209.084732 388.359131,207.301834 388.331604,205.258606 
	C388.008331,204.998291 388.018372,205.049728 388.400940,204.947052 
	C388.853210,203.544159 388.922943,202.243927 388.992676,200.943710 
	C388.992676,200.943710 389.019104,201.012314 388.990082,201.034866 
z"/>
<path fill="#EEB822" opacity="1.000000" stroke="none" 
	d="
M203.785416,205.279434 
	C203.049225,207.044891 202.313049,208.810364 201.386078,211.033417 
	C198.960983,211.033417 196.185059,211.032257 193.409119,211.033630 
	C186.883636,211.036896 186.735794,210.839264 188.360916,204.267960 
	C190.427887,195.910095 195.743942,193.529617 204.342194,197.297348 
	C201.494171,200.289902 195.347702,195.121460 193.687836,201.970230 
	C196.518112,201.970230 198.979446,201.771179 201.373627,202.084854 
	C202.147202,202.186203 202.744339,203.634247 203.600159,204.892624 
	C203.778152,205.318985 203.785416,205.279434 203.785416,205.279434 
M192.207504,207.741531 
	C193.968552,208.272232 195.729599,208.802933 197.649445,209.381500 
	C198.070435,207.246033 198.318802,205.986160 198.604462,204.537170 
	C196.698196,204.203949 195.026413,203.911713 193.300278,203.609970 
	C192.989914,204.747620 192.686417,205.860153 192.207504,207.741531 
z"/>
<path fill="#E7B221" opacity="1.000000" stroke="none" 
	d="
M405.759735,200.186356 
	C409.660034,195.697952 415.351654,194.606842 421.379364,197.678085 
	C417.710205,198.142639 414.641876,198.531128 411.573547,198.919601 
	C411.602539,199.413925 411.631500,199.908249 411.660492,200.402557 
	C412.501434,200.633743 413.335022,200.897339 414.184723,201.089737 
	C416.303955,201.569519 419.676727,199.768799 419.771210,203.960312 
	C419.876434,208.630096 417.750854,210.977371 413.563568,211.034424 
	C410.905609,211.070648 408.245728,211.011353 405.588013,210.944656 
	C405.346710,210.938583 405.114655,210.564850 404.187347,209.768280 
	C408.039825,209.062241 411.318512,208.461349 415.292480,207.733032 
	C412.196930,203.848801 404.379913,208.704056 406.210480,200.349960 
	C405.822571,200.134552 405.783478,200.172791 405.759735,200.186356 
z"/>
<path fill="#E9B422" opacity="1.000000" stroke="none" 
	d="
M220.014450,206.998383 
	C217.817352,210.379837 208.856949,212.960129 205.584427,210.660080 
	C204.582108,209.955612 204.952972,207.297363 204.240204,205.406631 
	C203.785416,205.279434 203.778152,205.318985 203.744568,205.326508 
	C204.544678,203.438660 205.666870,201.612778 206.144257,199.631531 
	C206.856247,196.676559 208.136856,195.224792 211.686569,196.596130 
	C210.810135,200.469727 209.917099,204.416672 208.953079,208.677368 
	C211.443390,208.677368 213.687210,208.677368 216.389694,208.677368 
	C217.262421,205.140732 218.091797,201.450989 219.142792,197.825485 
	C219.330750,197.177124 220.435654,196.794540 221.117172,196.289246 
	C221.209290,197.036331 221.301422,197.783417 221.713974,198.767517 
	C222.034393,199.004547 221.991211,198.927277 221.616455,199.074646 
	C221.146378,200.503616 221.051025,201.785202 220.994720,203.038635 
	C221.033768,203.010483 220.995834,202.922012 220.623215,203.073914 
	C220.151657,204.503922 220.052734,205.782043 219.985992,207.061371 
	C220.018188,207.062576 220.014450,206.998383 220.014450,206.998383 
z"/>
<path fill="#F4BC23" opacity="1.000000" stroke="none" 
	d="
M341.986633,196.319031 
	C345.035980,196.266937 348.085358,196.214844 351.811340,196.399673 
	C353.023224,196.733749 353.558441,196.830917 354.093658,196.928070 
	C354.093658,196.928070 354.032471,196.980438 354.136292,197.149689 
	C354.408081,197.576279 354.609589,197.803925 354.844604,198.001892 
	C354.724731,199.164734 354.604828,200.327576 354.833923,201.779785 
	C355.182953,202.069168 355.256104,202.028885 355.285522,201.996506 
	C352.576263,206.501160 348.181580,206.478592 343.355804,205.804962 
	C342.794861,207.552856 342.311523,209.058853 341.754761,210.793671 
	C340.411041,210.793671 338.985443,210.793671 337.293457,210.793671 
	C338.076111,207.373550 338.827667,204.089447 339.359863,200.394348 
	C339.140533,199.983337 339.073761,200.019272 339.384521,200.117355 
	C339.865173,199.815430 340.035065,199.415421 340.398407,198.826355 
	C341.056793,197.864532 341.521698,197.091782 341.986633,196.319031 
M344.806732,203.776932 
	C349.016357,204.540329 350.522186,202.675385 349.875427,198.464584 
	C345.544830,197.300125 343.653168,198.838974 344.806732,203.776932 
z"/>
<path fill="#F0B923" opacity="1.000000" stroke="none" 
	d="
M260.965057,196.333557 
	C261.846680,196.337173 262.728333,196.340790 263.934052,196.808472 
	C264.422150,197.540741 264.620728,197.780243 264.853943,197.991058 
	C264.688446,199.502625 264.522919,201.014191 264.750305,202.797348 
	C265.143219,203.068939 265.212585,203.033737 265.240845,203.004120 
	C261.498291,204.382568 257.727509,205.790634 252.922546,207.584885 
	C252.879196,207.728470 252.421249,209.245529 251.947479,210.815033 
	C250.354599,210.815033 248.925201,210.815033 247.373795,210.815033 
	C248.371613,206.626419 249.315552,202.663971 250.680664,198.256195 
	C251.402908,197.318512 251.703995,196.826157 252.005081,196.333801 
	C254.444519,196.276764 256.883942,196.219711 259.791931,196.323151 
	C260.260468,196.483643 260.631775,196.512543 260.631775,196.512543 
	C260.631775,196.512543 260.965057,196.333557 260.965057,196.333557 
M260.212372,200.292877 
	C260.317505,199.821045 260.422607,199.349213 260.504517,198.582016 
	C260.378357,198.293701 260.156616,198.117310 259.048187,198.113342 
	C254.553696,197.502426 253.940033,200.042892 254.365234,204.708649 
	C256.660065,203.619095 258.373138,202.805756 260.286285,201.793152 
	C260.435883,201.524933 260.412903,201.266647 260.212372,200.292877 
z"/>
<path fill="#E3AF21" opacity="1.000000" stroke="none" 
	d="
M222.000076,199.032501 
	C223.606918,195.288055 226.960846,196.100922 229.978928,196.113312 
	C231.772385,196.120667 233.565155,196.295303 235.376831,197.013733 
	C233.785889,197.818069 232.053574,197.695786 230.601440,198.275406 
	C229.155518,198.852570 227.990814,200.134293 226.702805,201.107086 
	C227.007019,201.482330 227.311218,201.857574 227.615433,202.232819 
	C229.617615,202.403915 231.619797,202.574997 234.022018,202.780273 
	C232.074005,206.793365 224.654572,201.435852 225.649399,208.997864 
	C227.526688,208.997864 229.499741,208.926880 231.453857,209.087082 
	C231.700104,209.107269 231.846664,210.343430 232.039413,211.016220 
	C228.258316,211.016220 224.477234,211.016220 220.214996,211.016220 
	C220.390305,209.715103 220.529724,208.680466 220.341797,207.322113 
	C220.014450,206.998383 220.018188,207.062576 220.400024,206.963806 
	C220.853180,205.550705 220.924515,204.236359 220.995850,202.922012 
	C220.995834,202.922012 221.033768,203.010483 221.402542,202.920258 
	C221.844620,201.529114 221.917908,200.228195 221.991211,198.927277 
	C221.991211,198.927277 222.034393,199.004547 222.000076,199.032501 
z"/>
<path fill="#E3AF21" opacity="1.000000" stroke="none" 
	d="
M341.596344,196.250168 
	C341.521698,197.091782 341.056793,197.864532 340.208984,198.419830 
	C339.292755,198.589691 338.759369,198.977020 338.225983,199.364349 
	C338.508575,199.582642 338.791168,199.800964 339.073761,200.019272 
	C339.073761,200.019272 339.140533,199.983337 339.154022,200.019028 
	C336.918213,202.056778 334.476349,203.890457 332.509583,206.139557 
	C331.662842,207.107880 331.800507,208.937057 331.399475,210.800003 
	C329.877991,210.874359 328.345459,210.949234 328.108276,210.960831 
	C326.858215,205.945969 325.770020,201.580399 324.328125,196.942932 
	C323.974426,196.671021 324.075684,196.896561 324.058777,196.953690 
	C325.865112,196.611343 327.688385,196.211868 329.503510,195.814163 
	C330.539368,198.018188 331.365814,199.776672 332.249359,201.656601 
	C335.385956,199.933823 336.378357,194.836014 341.596344,196.250168 
z"/>
<path fill="#F0B923" opacity="1.000000" stroke="none" 
	d="
M236.870483,196.985748 
	C238.354706,196.639984 239.838928,196.294235 241.938828,195.805054 
	C240.870193,200.502060 239.971985,204.449997 239.000824,208.718613 
	C241.528931,208.902664 243.829254,209.070114 246.129578,209.237579 
	C246.140106,209.834152 246.150635,210.430710 246.161179,211.027283 
	C242.413025,211.027283 238.664871,211.027283 234.403885,210.618164 
	C234.884186,205.801270 235.877335,201.393509 236.870483,196.985748 
z"/>
<path fill="#151004" opacity="1.000000" stroke="none" 
	d="
M236.631805,196.985840 
	C235.877335,201.393509 234.884186,205.801270 233.940765,210.606201 
	C233.556763,211.024216 233.123062,211.045059 232.364380,211.041061 
	C231.846664,210.343430 231.700104,209.107269 231.453857,209.087082 
	C229.499741,208.926880 227.526688,208.997864 225.649399,208.997864 
	C224.654572,201.435852 232.074005,206.793365 234.022018,202.780273 
	C231.619797,202.574997 229.617615,202.403915 227.615433,202.232819 
	C227.311218,201.857574 227.007019,201.482330 226.702805,201.107086 
	C227.990814,200.134293 229.155518,198.852570 230.601440,198.275406 
	C232.053574,197.695786 233.785889,197.818069 235.655853,197.320175 
	C235.916290,197.007599 236.393143,196.985916 236.631805,196.985840 
z"/>
<path fill="#826751" opacity="1.000000" stroke="none" 
	d="
M244.384369,176.955109 
	C240.380615,173.815399 243.091034,172.168533 245.759399,170.304230 
	C245.712875,171.333893 245.369614,172.504623 244.524612,175.386536 
	C247.599854,173.485962 249.472321,172.328735 251.692032,171.105392 
	C251.159683,172.453186 250.280090,173.867096 249.198151,175.531342 
	C247.583359,176.194229 246.170914,176.606796 244.384369,176.955109 
z"/>
<path fill="#EEB822" opacity="1.000000" stroke="none" 
	d="
M251.747040,196.277939 
	C251.703995,196.826157 251.402908,197.318512 250.902435,197.912018 
	C250.965012,197.416138 251.227005,196.819107 251.747040,196.277939 
z"/>
<path fill="#E9B424" opacity="1.000000" stroke="none" 
	d="
M270.187378,125.395752 
	C270.310211,125.215942 270.581604,124.725151 271.057922,124.148697 
	C270.953888,124.403610 270.644928,124.744186 270.187378,125.395752 
z"/>
<path fill="#E9B424" opacity="1.000000" stroke="none" 
	d="
M272.635132,126.236977 
	C272.416901,126.390961 271.871124,126.457466 271.144592,126.395248 
	C271.411713,126.227516 271.859650,126.188507 272.635132,126.236977 
z"/>
<path fill="#E3AF21" opacity="1.000000" stroke="none" 
	d="
M353.927917,196.678162 
	C353.558441,196.830917 353.023224,196.733749 352.262756,196.478027 
	C352.612427,196.355728 353.187317,196.391983 353.927917,196.678162 
z"/>
<path fill="#E9B422" opacity="1.000000" stroke="none" 
	d="
M309.301880,210.937225 
	C309.417542,210.621628 309.826904,210.360718 310.476685,210.046768 
	C310.343201,210.326447 309.969391,210.659180 309.301880,210.937225 
z"/>
<path fill="#E9B422" opacity="1.000000" stroke="none" 
	d="
M319.970154,206.746567 
	C319.683685,206.797913 319.600281,206.550125 319.767639,206.135559 
	C319.900513,206.178223 319.952087,206.337769 319.970154,206.746567 
z"/>
<path fill="#E9B422" opacity="1.000000" stroke="none" 
	d="
M314.997314,202.855606 
	C314.968048,203.144775 314.938751,203.433960 314.852936,204.155884 
	C314.796387,204.588654 314.367096,204.522812 314.187683,204.400543 
	C314.007599,204.041962 314.006958,203.805664 314.253296,203.147125 
	C314.665924,202.768463 314.831635,202.812042 314.997314,202.855606 
z"/>
<path fill="#E9B422" opacity="1.000000" stroke="none" 
	d="
M311.077576,207.855011 
	C310.981812,207.932739 311.049927,207.535629 311.069000,207.437012 
	C311.088074,207.338409 311.173340,207.777267 311.077576,207.855011 
z"/>
<path fill="#E9B422" opacity="1.000000" stroke="none" 
	d="
M315.684326,208.373108 
	C315.849060,208.410706 315.905609,208.626846 315.934326,209.019897 
	C315.721893,209.027954 315.611786,208.812912 315.684326,208.373108 
z"/>
<path fill="#E9B422" opacity="1.000000" stroke="none" 
	d="
M320.289337,210.831421 
	C320.030579,210.599380 320.062775,210.352951 320.152161,209.736877 
	C320.332947,209.850510 320.456604,210.333786 320.289337,210.831421 
z"/>
<path fill="#E9B424" opacity="1.000000" stroke="none" 
	d="
M271.737274,121.256783 
	C271.968048,121.329506 271.631409,121.516495 271.631409,121.516495 
	C271.631409,121.516495 271.253632,121.482727 271.148834,121.404694 
	C271.044037,121.326653 271.506500,121.184059 271.737274,121.256783 
z"/>
<path fill="#E9B422" opacity="1.000000" stroke="none" 
	d="
M308.989471,198.350372 
	C309.076569,198.272446 309.027618,198.679642 308.998169,198.883072 
	C308.817139,198.891464 308.795013,198.672058 308.989471,198.350372 
z"/>
<path fill="#E3AF21" opacity="1.000000" stroke="none" 
	d="
M354.872131,197.732758 
	C354.609589,197.803925 354.408081,197.576279 354.145966,197.110596 
	C354.334442,197.089371 354.617065,197.276505 354.872131,197.732758 
z"/>
<path fill="#EEB822" opacity="1.000000" stroke="none" 
	d="
M264.880615,197.715485 
	C264.620728,197.780243 264.422150,197.540741 264.153534,197.063324 
	C264.335022,197.049362 264.621155,197.244644 264.880615,197.715485 
z"/>
<path fill="#E9B424" opacity="1.000000" stroke="none" 
	d="
M321.745911,121.112305 
	C321.796783,121.393723 321.553528,121.475693 321.147278,121.326233 
	C321.187195,121.190277 321.343018,121.129639 321.745911,121.112305 
z"/>
<path fill="#E9B424" opacity="1.000000" stroke="none" 
	d="
M289.456909,126.688980 
	C289.313049,126.817947 288.953247,126.750305 288.344055,126.569794 
	C288.476746,126.468742 288.858856,126.480553 289.456909,126.688980 
z"/>
<path fill="#E9B424" opacity="1.000000" stroke="none" 
	d="
M344.564331,126.622314 
	C344.492676,126.822212 344.169220,126.870277 343.592346,126.877563 
	C343.669037,126.752037 343.993591,126.629944 344.564331,126.622314 
z"/>
<path fill="#E9B424" opacity="1.000000" stroke="none" 
	d="
M361.194519,132.639725 
	C361.135040,132.736481 361.001129,132.415817 360.976257,132.332428 
	C360.951416,132.249023 361.253998,132.542969 361.194519,132.639725 
z"/>
<path fill="#E9B422" opacity="1.000000" stroke="none" 
	d="
M317.736511,196.241760 
	C317.966888,196.314667 317.630615,196.495926 317.630615,196.495926 
	C317.630615,196.495926 317.256104,196.463379 317.150543,196.388367 
	C317.044983,196.313354 317.506134,196.168854 317.736511,196.241760 
z"/>
<path fill="#EEB822" opacity="1.000000" stroke="none" 
	d="
M260.735718,196.262360 
	C260.965057,196.333557 260.631775,196.512543 260.631775,196.512543 
	C260.631775,196.512543 260.260468,196.483643 260.154877,196.411087 
	C260.049286,196.338531 260.506378,196.191147 260.735718,196.262360 
z"/>
<path fill="#826751" opacity="1.000000" stroke="none" 
	d="
M270.017334,129.256561 
	C270.581940,128.727188 271.510742,128.209793 272.441467,128.206238 
	C295.543915,128.117722 318.646576,128.079239 341.749207,128.057404 
	C342.565979,128.056641 343.382996,128.316818 344.543152,128.660477 
	C320.865662,129.208694 296.845062,129.555923 272.824066,129.877151 
	C272.011993,129.888016 271.196381,129.636932 270.017334,129.256561 
z"/>
<path fill="#826751" opacity="1.000000" stroke="none" 
	d="
M360.399200,173.684357 
	C360.289398,174.299805 359.797974,175.688644 359.233887,175.718826 
	C355.536865,175.916550 351.824127,175.820679 348.116486,175.820679 
	C347.862885,175.319122 347.609253,174.817551 347.355621,174.315994 
	C349.114014,173.004501 350.872437,171.693024 352.976929,170.321991 
	C352.662109,171.336853 352.001160,172.411285 351.128845,173.829346 
	C354.196869,173.829346 357.090424,173.829346 360.399200,173.684357 
z"/>
<path fill="#826751" opacity="1.000000" stroke="none" 
	d="
M253.576431,168.085510 
	C253.474396,168.909485 253.078171,169.881729 252.366821,170.937958 
	C252.461884,170.092545 252.872055,169.163162 253.576431,168.085510 
z"/>
<path fill="#2F2407" opacity="1.000000" stroke="none" 
	d="
M315.347137,202.757462 
	C314.831635,202.812042 314.665924,202.768463 314.252289,202.792679 
	C312.222321,198.328629 312.837677,197.755371 320.123871,198.778046 
	C318.160614,200.499329 316.928772,201.579315 315.347137,202.757462 
z"/>
<path fill="#151004" opacity="1.000000" stroke="none" 
	d="
M300.239105,207.481750 
	C298.384949,208.362396 296.666046,208.842194 294.418060,209.469666 
	C294.832825,207.097000 295.077850,205.695450 295.436707,203.642715 
	C297.026550,205.415833 301.408417,201.459457 300.239105,207.481750 
z"/>
<path fill="#E9B422" opacity="1.000000" stroke="none" 
	d="
M306.248291,207.769791 
	C306.082001,208.495667 305.718903,209.020950 305.355804,209.546249 
	C305.051422,209.236618 304.747070,208.927002 304.442688,208.617371 
	C304.978943,208.267990 305.515228,207.918594 306.248291,207.769791 
z"/>
<path fill="#E9B422" opacity="1.000000" stroke="none" 
	d="
M306.467834,205.044571 
	C306.007996,204.682297 305.777771,204.239807 305.547546,203.797302 
	C305.984955,203.673599 306.422394,203.549911 306.859802,203.426208 
	C306.805695,203.938934 306.751587,204.451645 306.467834,205.044571 
z"/>
<path fill="#151004" opacity="1.000000" stroke="none" 
	d="
M380.092987,198.181946 
	C383.042877,197.906296 384.329071,198.637360 383.162018,201.448853 
	C381.811646,204.702042 383.380249,210.636612 375.376648,208.402252 
	C376.849121,204.923874 378.272766,201.560959 380.092987,198.181946 
z"/>
<path fill="#000000" opacity="1.000000" stroke="none" 
	d="
M388.569946,201.031250 
	C388.922943,202.243927 388.853210,203.544159 388.374268,204.944397 
	C388.025787,203.735886 388.086517,202.427338 388.569946,201.031250 
z"/>
<path fill="#1D1605" opacity="1.000000" stroke="none" 
	d="
M192.295212,207.357101 
	C192.686417,205.860153 192.989914,204.747620 193.300278,203.609970 
	C195.026413,203.911713 196.698196,204.203949 198.604462,204.537170 
	C198.318802,205.986160 198.070435,207.246033 197.649445,209.381500 
	C195.729599,208.802933 193.968552,208.272232 192.295212,207.357101 
z"/>
<path fill="#000000" opacity="1.000000" stroke="none" 
	d="
M221.616455,199.074646 
	C221.917908,200.228195 221.844620,201.529114 221.363495,202.948410 
	C221.051025,201.785202 221.146378,200.503616 221.616455,199.074646 
z"/>
<path fill="#000000" opacity="1.000000" stroke="none" 
	d="
M220.623230,203.073914 
	C220.924515,204.236359 220.853180,205.550705 220.367828,206.962601 
	C220.052734,205.782043 220.151657,204.503922 220.623230,203.073914 
z"/>
<path fill="#1D1605" opacity="1.000000" stroke="none" 
	d="
M344.473267,203.528320 
	C343.653168,198.838974 345.544830,197.300125 349.875427,198.464584 
	C350.522186,202.675385 349.016357,204.540329 344.473267,203.528320 
z"/>
<path fill="#000000" opacity="1.000000" stroke="none" 
	d="
M339.384521,200.117355 
	C338.791168,199.800964 338.508575,199.582642 338.225983,199.364349 
	C338.759369,198.977020 339.292755,198.589691 340.015564,198.608887 
	C340.035065,199.415421 339.865173,199.815430 339.384521,200.117355 
z"/>
<path fill="#1D1605" opacity="1.000000" stroke="none" 
	d="
M260.527740,198.877380 
	C260.422607,199.349213 260.317505,199.821045 260.126831,200.891663 
	C260.056274,201.657776 260.071228,201.825104 260.086182,201.992416 
	C258.373138,202.805756 256.660065,203.619095 254.365234,204.708649 
	C253.940033,200.042892 254.553696,197.502426 259.602753,198.300171 
	C260.280792,198.617126 260.404266,198.747253 260.527740,198.877380 
z"/>
<path fill="#EEB822" opacity="1.000000" stroke="none" 
	d="
M260.186218,201.892792 
	C260.071228,201.825104 260.056274,201.657776 260.129333,201.254364 
	C260.412903,201.266647 260.435883,201.524933 260.186218,201.892792 
z"/>
<path fill="#EEB822" opacity="1.000000" stroke="none" 
	d="
M260.516113,198.729706 
	C260.404266,198.747253 260.280792,198.617126 259.998291,198.269928 
	C260.156616,198.117310 260.378357,198.293701 260.516113,198.729706 
z"/>
</svg>